<svg xmlns="http://www.w3.org/2000/svg" viewBox="0 0 32 32">
  <!-- Millie silhouette favicon - simplified lying sheepadoodle -->
  <rect width="32" height="32" rx="6" fill="#1B3A2D"/>
  <g transform="translate(2, 6) scale(0.175)">
    <!-- Simplified body mass -->
    <path d="M20 85 C15 75 12 60 18 48 C24 38 40 32 65 30 C90 28 115 32 130 40 C140 36 150 38 155 45 C160 52 158 65 152 72 L152 82 L20 82Z" fill="white" opacity="0.95"/>
    <!-- Black patches -->
    <path d="M20 82 C15 75 12 60 18 48 C24 38 40 32 65 30 C75 29 82 30 85 32 L85 55 C75 50 55 55 45 65 C38 72 38 82 40 82Z" fill="white" opacity="0"/>
    <path d="M20 82 C15 75 14 62 18 50 C22 40 35 34 55 31 C45 35 35 42 30 52 C25 62 28 75 35 82Z" fill="rgba(255,255,255,0.6)"/>
    <!-- Head -->
    <circle cx="145" cy="48" r="18" fill="white"/>
    <!-- Ear -->
    <path d="M155 34 C162 30 168 35 168 44 C168 50 164 54 158 52" fill="#F5F0EB"/>
    <!-- Eye -->
    <circle cx="150" cy="46" r="3" fill="#1B3A2D"/>
    <!-- Nose -->
    <ellipse cx="160" cy="52" rx="4" ry="2.5" fill="#1B3A2D"/>
  </g>
</svg>
